<svg id="visual" viewBox="0 0 960 540" width="960" height="540" xmlns="http://www.w3.org/2000/svg" xmlns:xlink="http://www.w3.org/1999/xlink" version="1.1"><g stroke-width="1" stroke-linejoin="bevel"><path d="M487 253L622 121L484 141Z" fill="#fbf7fe" stroke="#fbf7fe"></path><path d="M487 253L654 260L622 121Z" fill="#f6f0fb" stroke="#f6f0fb"></path><path d="M764 0L624 0L622 121Z" fill="#e6d4f2" stroke="#e6d4f2"></path><path d="M622 121L486 0L484 141Z" fill="#f1e8f9" stroke="#f1e8f9"></path><path d="M487 253L669 375L654 260Z" fill="#fdfbff" stroke="#fdfbff"></path><path d="M654 260L789 132L622 121Z" fill="#f1e8f9" stroke="#f1e8f9"></path><path d="M624 0L486 0L622 121Z" fill="#fbf7fe" stroke="#fbf7fe"></path><path d="M354 281L450 380L487 253Z" fill="#f3ecfa" stroke="#f3ecfa"></path><path d="M487 253L450 380L669 375Z" fill="#e6d4f2" stroke="#e6d4f2"></path><path d="M354 281L487 253L484 141Z" fill="#f1e8f9" stroke="#f1e8f9"></path><path d="M300 108L354 281L484 141Z" fill="#ece0f6" stroke="#ece0f6"></path><path d="M831 249L789 132L654 260Z" fill="#fbf7fe" stroke="#fbf7fe"></path><path d="M823 366L831 249L654 260Z" fill="#f8f3fd" stroke="#f8f3fd"></path><path d="M486 0L300 108L484 141Z" fill="#f1e8f9" stroke="#f1e8f9"></path><path d="M960 97L764 0L789 132Z" fill="#f3ecfa" stroke="#f3ecfa"></path><path d="M789 132L764 0L622 121Z" fill="#efe4f8" stroke="#efe4f8"></path><path d="M193 243L357 401L354 281Z" fill="#f1e8f9" stroke="#f1e8f9"></path><path d="M354 281L357 401L450 380Z" fill="#f8f3fd" stroke="#f8f3fd"></path><path d="M450 380L503 540L669 375Z" fill="#f6f0fb" stroke="#f6f0fb"></path><path d="M669 375L823 366L654 260Z" fill="#f6f0fb" stroke="#f6f0fb"></path><path d="M808 540L823 366L669 375Z" fill="#efe4f8" stroke="#efe4f8"></path><path d="M486 0L283 0L300 108Z" fill="#eadcf5" stroke="#eadcf5"></path><path d="M357 401L503 540L450 380Z" fill="#f6f0fb" stroke="#f6f0fb"></path><path d="M503 540L671 540L669 375Z" fill="#ece0f6" stroke="#ece0f6"></path><path d="M300 108L193 243L354 281Z" fill="#e8d8f3" stroke="#e8d8f3"></path><path d="M152 101L193 243L300 108Z" fill="#fbf7fe" stroke="#fbf7fe"></path><path d="M960 431L960 254L823 366Z" fill="#e8d8f3" stroke="#e8d8f3"></path><path d="M823 366L960 254L831 249Z" fill="#fdfbff" stroke="#fdfbff"></path><path d="M831 249L960 97L789 132Z" fill="#efe4f8" stroke="#efe4f8"></path><path d="M960 254L960 97L831 249Z" fill="#ece0f6" stroke="#ece0f6"></path><path d="M187 540L337 540L357 401Z" fill="#f8f3fd" stroke="#f8f3fd"></path><path d="M357 401L337 540L503 540Z" fill="#fdfbff" stroke="#fdfbff"></path><path d="M176 0L152 101L300 108Z" fill="#fbf7fe" stroke="#fbf7fe"></path><path d="M671 540L808 540L669 375Z" fill="#e8d8f3" stroke="#e8d8f3"></path><path d="M283 0L176 0L300 108Z" fill="#f1e8f9" stroke="#f1e8f9"></path><path d="M960 97L960 0L764 0Z" fill="#efe4f8" stroke="#efe4f8"></path><path d="M808 540L960 431L823 366Z" fill="#fbf7fe" stroke="#fbf7fe"></path><path d="M0 278L139 417L193 243Z" fill="#efe4f8" stroke="#efe4f8"></path><path d="M193 243L139 417L357 401Z" fill="#fdfbff" stroke="#fdfbff"></path><path d="M139 417L187 540L357 401Z" fill="#f8f3fd" stroke="#f8f3fd"></path><path d="M808 540L960 540L960 431Z" fill="#f8f3fd" stroke="#f8f3fd"></path><path d="M0 0L0 166L152 101Z" fill="#ece0f6" stroke="#ece0f6"></path><path d="M152 101L0 166L193 243Z" fill="#f1e8f9" stroke="#f1e8f9"></path><path d="M139 417L0 540L187 540Z" fill="#efe4f8" stroke="#efe4f8"></path><path d="M0 166L0 278L193 243Z" fill="#f8f3fd" stroke="#f8f3fd"></path><path d="M176 0L0 0L152 101Z" fill="#f1e8f9" stroke="#f1e8f9"></path><path d="M0 278L0 432L139 417Z" fill="#f8f3fd" stroke="#f8f3fd"></path><path d="M0 432L0 540L139 417Z" fill="#f6f0fb" stroke="#f6f0fb"></path></g></svg>