<svg id="visual" viewBox="0 0 900 600" width="900" height="600" xmlns="http://www.w3.org/2000/svg" xmlns:xlink="http://www.w3.org/1999/xlink" version="1.1"><path d="M0 133L300 169L600 175L900 181L900 0L600 0L300 0L0 0Z" fill="#e6d4f2"></path><path d="M0 241L300 247L600 253L900 325L900 179L600 173L300 167L0 131Z" fill="#f4edfb"></path><path d="M0 307L300 349L600 319L900 403L900 323L600 251L300 245L0 239Z" fill="#fdfbff"></path><path d="M0 391L300 397L600 409L900 451L900 401L600 317L300 347L0 305Z" fill="#f4edfb"></path><path d="M0 601L300 601L600 601L900 601L900 449L600 407L300 395L0 389Z" fill="#e6d4f2"></path></svg>